<svg width="234" height="64" viewBox="0 0 234 64" fill="none" xmlns="http://www.w3.org/2000/svg">
<path d="M55.55 25L51.05 17.205C50.4599 16.1816 49.6205 15.3242 48.6098 14.7126C47.5991 14.1011 46.4501 13.7552 45.2697 13.7073C44.0894 13.6594 42.9161 13.911 41.8592 14.4386C40.8023 14.9663 39.8961 15.7528 39.225 16.725L35.39 10.0775C34.7834 9.02696 33.9141 8.15211 32.8675 7.53874C31.8209 6.92537 30.6328 6.59452 29.4198 6.57864C28.2068 6.56276 27.0105 6.86239 25.9481 7.44815C24.8858 8.03391 23.994 8.8857 23.36 9.91999C22.1219 8.80531 20.5268 8.16875 18.8614 8.12471C17.196 8.08066 15.5695 8.63203 14.2742 9.67972C12.9789 10.7274 12.0998 12.2027 11.7947 13.8405C11.4897 15.4783 11.7787 17.1712 12.61 18.615L13.445 20.0625C12.2674 20.1571 11.1328 20.5483 10.1471 21.1996C9.16135 21.8508 8.35648 22.741 7.80747 23.7871C7.25845 24.8332 6.98314 26.0013 7.00719 27.1825C7.03124 28.3637 7.35386 29.5196 7.945 30.5425L17.445 46.9975C18.8836 49.504 20.8048 51.7004 23.0976 53.4598C25.3903 55.2191 28.0091 56.5065 30.8025 57.2475C32.6715 57.7468 34.5979 57.9989 36.5325 57.9975C40.391 57.9911 44.1799 56.97 47.5191 55.0367C50.8583 53.1035 53.6303 50.326 55.557 46.983C57.4837 43.6399 58.4972 39.849 58.496 35.9905C58.4948 32.1321 57.4788 28.3418 55.55 25ZM53.8825 40.6575C52.9612 44.0963 51.0409 47.1847 48.3644 49.5321C45.6879 51.8795 42.3754 53.3806 38.8458 53.8454C35.3162 54.3102 31.728 53.7179 28.535 52.1435C25.342 50.569 22.6876 48.083 20.9075 45L11.4075 28.545C11.2105 28.2037 11.0827 27.827 11.0313 27.4363C10.9799 27.0456 11.006 26.6487 11.108 26.2681C11.3141 25.4994 11.817 24.8441 12.5063 24.4462C13.1955 24.0484 14.0145 23.9407 14.7832 24.1467C15.1638 24.2488 15.5206 24.4248 15.8332 24.6647C16.1457 24.9046 16.408 25.2037 16.605 25.545L22.105 35.07C22.2325 35.3047 22.4056 35.5115 22.6143 35.6782C22.823 35.8449 23.0629 35.9681 23.32 36.0406C23.577 36.113 23.846 36.1333 24.111 36.1001C24.376 36.0669 24.6317 35.981 24.8629 35.8474C25.0942 35.7139 25.2964 35.5353 25.4575 35.3223C25.6187 35.1093 25.7355 34.8662 25.8012 34.6074C25.8669 34.3485 25.88 34.0791 25.8399 33.815C25.7997 33.551 25.7071 33.2977 25.5675 33.07L16.0675 16.6175C15.7709 16.1036 15.6333 15.5133 15.6721 14.9212C15.711 14.3291 15.9245 13.7619 16.2858 13.2912C16.6471 12.8204 17.1398 12.4674 17.7017 12.2768C18.2636 12.0861 18.8694 12.0663 19.4425 12.22C19.8237 12.3205 20.1812 12.4959 20.494 12.7358C20.8069 12.9757 21.069 13.2754 21.265 13.6175L29.765 28.34C30.0375 28.7844 30.4728 29.1048 30.9781 29.233C31.4835 29.3612 32.0188 29.287 32.4703 29.0262C32.9217 28.7655 33.2534 28.3388 33.3949 27.837C33.5363 27.3353 33.4763 26.7981 33.2275 26.34L26.7275 15.09C26.3468 14.4021 26.2514 13.5923 26.4617 12.8348C26.672 12.0773 27.1713 11.4326 27.8521 11.0394C28.5329 10.6463 29.3409 10.5361 30.1021 10.7326C30.8633 10.929 31.517 11.4165 31.9225 12.09L40.5 26.945C38.3164 28.7541 36.8428 31.277 36.3396 34.0677C35.8363 36.8584 36.3359 39.7371 37.75 42.195C38.0152 42.6545 38.4521 42.9898 38.9645 43.1272C39.477 43.2645 40.023 43.1927 40.4825 42.9275C40.942 42.6623 41.2773 42.2254 41.4147 41.7129C41.552 41.2005 41.4802 40.6545 41.215 40.195C40.1543 38.3577 39.8668 36.1743 40.4158 34.125C40.9648 32.0757 42.3053 30.3285 44.1425 29.2675C44.3701 29.1362 44.5695 28.9614 44.7295 28.753C44.8895 28.5446 45.0068 28.3067 45.0748 28.053C45.1429 27.7992 45.1602 27.5346 45.1259 27.2741C45.0916 27.0136 45.0064 26.7625 44.875 26.535L42.375 22.205C41.9943 21.5171 41.8989 20.7073 42.1092 19.9498C42.3195 19.1923 42.8188 18.5476 43.4996 18.1544C44.1804 17.7613 44.9884 17.6511 45.7496 17.8476C46.5108 18.044 47.1645 18.5315 47.57 19.205L52.07 27C53.2604 29.043 54.0335 31.3019 54.3446 33.6459C54.6558 35.9898 54.4987 38.3722 53.8825 40.655V40.6575ZM46.5675 7.48249C46.6354 7.22867 46.7526 6.99071 46.9125 6.78222C47.0724 6.57372 47.2718 6.39877 47.4993 6.26737C47.7268 6.13596 47.978 6.05067 48.2385 6.01638C48.499 5.98208 48.7637 5.99945 49.0175 6.06749C52.995 7.13499 56.2675 9.59499 58.2325 13C58.4977 13.4595 58.5695 14.0055 58.4322 14.5179C58.2948 15.0304 57.9595 15.4673 57.5 15.7325C57.0405 15.9977 56.4945 16.0695 55.9821 15.9322C55.4696 15.7948 55.0327 15.4595 54.7675 15C53.3375 12.52 50.9275 10.72 47.9825 9.93249C47.7287 9.8646 47.4907 9.74736 47.2822 9.58748C47.0737 9.42759 46.8988 9.22819 46.7674 9.00067C46.636 8.77315 46.5507 8.52196 46.5164 8.26147C46.4821 8.00097 46.4995 7.73627 46.5675 7.48249ZM20.7275 59.25C20.5649 59.4564 20.3632 59.6288 20.1339 59.7572C19.9047 59.8857 19.6524 59.9677 19.3914 59.9986C19.1304 60.0294 18.866 60.0086 18.6131 59.9372C18.3602 59.8658 18.1238 59.7453 17.9175 59.5825C15.1675 57.41 12.89 54.6875 10.7675 51.0125C10.5023 50.553 10.4305 50.007 10.5678 49.4945C10.7052 48.9821 11.0405 48.5452 11.5 48.28C11.9595 48.0148 12.5055 47.943 13.018 48.0803C13.5304 48.2177 13.9673 48.553 14.2325 49.0125C16.0925 52.2325 18.05 54.5925 20.395 56.4425C20.8112 56.7708 21.08 57.251 21.1423 57.7774C21.2047 58.3039 21.0555 58.8335 20.7275 59.25Z" fill="#00B37E"/>
<path d="M76.1173 41.5V22.8925H80.0514V30.5699H88.0377V22.8925H91.9627V41.5H88.0377V33.8135H80.0514V41.5H76.1173ZM99.1132 41.7635C98.2228 41.7635 97.4293 41.609 96.7327 41.3001C96.0361 40.9851 95.4849 40.5218 95.0791 39.91C94.6793 39.2922 94.4795 38.5229 94.4795 37.6022C94.4795 36.8269 94.6218 36.1758 94.9065 35.6488C95.1912 35.1218 95.5788 34.6978 96.0694 34.3768C96.5601 34.0558 97.1173 33.8135 97.7412 33.65C98.3712 33.4864 99.0314 33.3713 99.7219 33.3047C100.534 33.2199 101.188 33.1412 101.684 33.0685C102.181 32.9897 102.541 32.8746 102.766 32.7232C102.99 32.5718 103.102 32.3477 103.102 32.0509V31.9964C103.102 31.4209 102.92 30.9757 102.557 30.6608C102.199 30.3458 101.69 30.1883 101.03 30.1883C100.334 30.1883 99.7794 30.3428 99.3676 30.6517C98.9557 30.9545 98.6831 31.3361 98.5498 31.7965L94.9701 31.5057C95.1518 30.6577 95.5092 29.9248 96.0422 29.307C96.5752 28.6831 97.2627 28.2046 98.1046 27.8715C98.9526 27.5323 99.9339 27.3627 101.048 27.3627C101.824 27.3627 102.566 27.4535 103.274 27.6352C103.989 27.8169 104.622 28.0986 105.173 28.4802C105.731 28.8618 106.17 29.3524 106.491 29.9521C106.812 30.5457 106.972 31.2574 106.972 32.0872V41.5H103.302V39.5647H103.193C102.969 40.0009 102.669 40.3855 102.293 40.7186C101.918 41.0457 101.466 41.3031 100.939 41.4909C100.412 41.6726 99.8037 41.7635 99.1132 41.7635ZM100.222 39.0923C100.791 39.0923 101.294 38.9802 101.73 38.7561C102.166 38.5259 102.508 38.217 102.757 37.8294C103.005 37.4417 103.129 37.0026 103.129 36.512V35.031C103.008 35.1097 102.841 35.1824 102.629 35.249C102.423 35.3096 102.19 35.3672 101.93 35.4217C101.669 35.4701 101.409 35.5156 101.148 35.558C100.888 35.5943 100.652 35.6276 100.44 35.6579C99.9854 35.7245 99.5886 35.8305 99.2494 35.9759C98.9102 36.1213 98.6468 36.3181 98.459 36.5665C98.2712 36.8088 98.1773 37.1116 98.1773 37.475C98.1773 38.002 98.3681 38.4048 98.7497 38.6834C99.1374 38.956 99.628 39.0923 100.222 39.0923ZM113.846 33.4319V41.5H109.975V27.5444H113.664V30.0066H113.827C114.136 29.1949 114.654 28.5529 115.381 28.0804C116.108 27.6019 116.989 27.3627 118.025 27.3627C118.994 27.3627 119.839 27.5747 120.56 27.9987C121.281 28.4227 121.841 29.0284 122.241 29.8158C122.641 30.5972 122.84 31.53 122.84 32.6142V41.5H118.97V33.3047C118.976 32.4506 118.758 31.7844 118.316 31.3058C117.874 30.8213 117.265 30.579 116.49 30.579C115.969 30.579 115.508 30.691 115.109 30.9152C114.715 31.1393 114.406 31.4664 114.182 31.8964C113.964 32.3204 113.852 32.8322 113.846 33.4319ZM131.033 41.7271C129.973 41.7271 129.013 41.4546 128.153 40.9094C127.299 40.3582 126.621 39.5496 126.118 38.4835C125.621 37.4114 125.373 36.097 125.373 34.5404C125.373 32.9413 125.631 31.6117 126.145 30.5517C126.66 29.4857 127.345 28.6892 128.199 28.1622C129.059 27.6292 130.001 27.3627 131.024 27.3627C131.806 27.3627 132.457 27.4959 132.978 27.7624C133.505 28.0229 133.929 28.35 134.25 28.7437C134.577 29.1313 134.825 29.5129 134.995 29.8885H135.113V22.8925H138.974V41.5H135.158V39.2649H134.995C134.813 39.6526 134.556 40.0372 134.223 40.4188C133.895 40.7943 133.468 41.1063 132.941 41.3546C132.421 41.603 131.785 41.7271 131.033 41.7271ZM132.26 38.6471C132.884 38.6471 133.411 38.4775 133.841 38.1383C134.277 37.793 134.61 37.3115 134.84 36.6937C135.077 36.0758 135.195 35.352 135.195 34.5222C135.195 33.6924 135.08 32.9716 134.849 32.3598C134.619 31.748 134.286 31.2756 133.85 30.9424C133.414 30.6093 132.884 30.4427 132.26 30.4427C131.624 30.4427 131.088 30.6153 130.652 30.9606C130.216 31.3058 129.886 31.7844 129.662 32.3961C129.437 33.0079 129.325 33.7166 129.325 34.5222C129.325 35.3338 129.437 36.0516 129.662 36.6755C129.892 37.2933 130.222 37.7779 130.652 38.1292C131.088 38.4745 131.624 38.6471 132.26 38.6471ZM144.546 46.7334C144.056 46.7334 143.595 46.694 143.165 46.6152C142.741 46.5426 142.39 46.4487 142.111 46.3336L142.983 43.4443C143.438 43.5837 143.847 43.6594 144.21 43.6715C144.58 43.6836 144.898 43.5988 145.164 43.4171C145.437 43.2354 145.658 42.9265 145.827 42.4903L146.054 41.8998L141.048 27.5444H145.119L148.008 37.793H148.153L151.07 27.5444H155.167L149.743 43.0082C149.483 43.7593 149.128 44.4135 148.68 44.9707C148.238 45.534 147.678 45.9671 146.999 46.27C146.321 46.5789 145.503 46.7334 144.546 46.7334ZM163.142 41.5V22.8925H167.076V38.2564H175.054V41.5H163.142ZM183.946 41.7726C182.511 41.7726 181.275 41.4818 180.239 40.9003C179.21 40.3128 178.416 39.483 177.859 38.4109C177.302 37.3327 177.023 36.0577 177.023 34.5858C177.023 33.1502 177.302 31.8904 177.859 30.8061C178.416 29.7219 179.201 28.8769 180.212 28.2712C181.23 27.6655 182.423 27.3627 183.792 27.3627C184.713 27.3627 185.57 27.5111 186.363 27.8079C187.163 28.0986 187.859 28.5377 188.453 29.1253C189.052 29.7128 189.519 30.4518 189.852 31.3422C190.185 32.2265 190.352 33.2623 190.352 34.4495V35.5125H178.568V33.1139H186.708C186.708 32.5566 186.587 32.063 186.345 31.6329C186.103 31.2029 185.766 30.8667 185.336 30.6244C184.912 30.3761 184.419 30.2519 183.855 30.2519C183.268 30.2519 182.747 30.3882 182.293 30.6608C181.844 30.9273 181.493 31.2877 181.239 31.742C180.984 32.1902 180.854 32.6899 180.848 33.2411V35.5216C180.848 36.2121 180.975 36.8088 181.23 37.3115C181.49 37.8142 181.857 38.2019 182.329 38.4745C182.802 38.747 183.362 38.8833 184.01 38.8833C184.44 38.8833 184.834 38.8227 185.191 38.7016C185.548 38.5805 185.854 38.3987 186.109 38.1565C186.363 37.9142 186.557 37.6174 186.69 37.2661L190.27 37.5023C190.088 38.3624 189.716 39.1135 189.152 39.7555C188.595 40.3915 187.874 40.8882 186.99 41.2456C186.112 41.5969 185.097 41.7726 183.946 41.7726ZM196.857 41.7635C195.967 41.7635 195.173 41.609 194.477 41.3001C193.78 40.9851 193.229 40.5218 192.823 39.91C192.423 39.2922 192.223 38.5229 192.223 37.6022C192.223 36.8269 192.366 36.1758 192.65 35.6488C192.935 35.1218 193.323 34.6978 193.813 34.3768C194.304 34.0558 194.861 33.8135 195.485 33.65C196.115 33.4864 196.775 33.3713 197.466 33.3047C198.277 33.2199 198.932 33.1412 199.428 33.0685C199.925 32.9897 200.285 32.8746 200.51 32.7232C200.734 32.5718 200.846 32.3477 200.846 32.0509V31.9964C200.846 31.4209 200.664 30.9757 200.301 30.6608C199.943 30.3458 199.434 30.1883 198.774 30.1883C198.078 30.1883 197.523 30.3428 197.111 30.6517C196.7 30.9545 196.427 31.3361 196.294 31.7965L192.714 31.5057C192.896 30.6577 193.253 29.9248 193.786 29.307C194.319 28.6831 195.007 28.2046 195.849 27.8715C196.697 27.5323 197.678 27.3627 198.792 27.3627C199.568 27.3627 200.31 27.4535 201.018 27.6352C201.733 27.8169 202.366 28.0986 202.917 28.4802C203.475 28.8618 203.914 29.3524 204.235 29.9521C204.556 30.5457 204.716 31.2574 204.716 32.0872V41.5H201.046V39.5647H200.937C200.712 40.0009 200.413 40.3855 200.037 40.7186C199.662 41.0457 199.21 41.3031 198.683 41.4909C198.156 41.6726 197.548 41.7635 196.857 41.7635ZM197.966 39.0923C198.535 39.0923 199.038 38.9802 199.474 38.7561C199.91 38.5259 200.252 38.217 200.5 37.8294C200.749 37.4417 200.873 37.0026 200.873 36.512V35.031C200.752 35.1097 200.585 35.1824 200.373 35.249C200.167 35.3096 199.934 35.3672 199.674 35.4217C199.413 35.4701 199.153 35.5156 198.892 35.558C198.632 35.5943 198.396 35.6276 198.184 35.6579C197.729 35.7245 197.333 35.8305 196.993 35.9759C196.654 36.1213 196.391 36.3181 196.203 36.5665C196.015 36.8088 195.921 37.1116 195.921 37.475C195.921 38.002 196.112 38.4048 196.494 38.6834C196.881 38.956 197.372 39.0923 197.966 39.0923ZM207.719 41.5V27.5444H211.471V29.9793H211.617C211.871 29.1132 212.298 28.459 212.898 28.0168C213.498 27.5686 214.188 27.3445 214.969 27.3445C215.163 27.3445 215.372 27.3566 215.596 27.3808C215.82 27.4051 216.017 27.4384 216.187 27.4808V30.9152C216.005 30.8606 215.754 30.8122 215.433 30.7698C215.112 30.7274 214.818 30.7062 214.551 30.7062C213.982 30.7062 213.473 30.8304 213.025 31.0787C212.583 31.321 212.232 31.6602 211.971 32.0963C211.717 32.5324 211.59 33.0352 211.59 33.6045V41.5H207.719ZM222.059 33.4319V41.5H218.188V27.5444H221.877V30.0066H222.04C222.349 29.1949 222.867 28.5529 223.594 28.0804C224.321 27.6019 225.202 27.3627 226.238 27.3627C227.207 27.3627 228.052 27.5747 228.773 27.9987C229.494 28.4227 230.054 29.0284 230.454 29.8158C230.854 30.5972 231.053 31.53 231.053 32.6142V41.5H227.183V33.3047C227.189 32.4506 226.971 31.7844 226.529 31.3058C226.087 30.8213 225.478 30.579 224.702 30.579C224.182 30.579 223.721 30.691 223.321 30.9152C222.928 31.1393 222.619 31.4664 222.395 31.8964C222.177 32.3204 222.065 32.8322 222.059 33.4319Z" fill="#E1E1E6"/>
</svg>
